<svg preserveAspectRatio="none" width="100%" height="100%" overflow="visible" style="display: block;" viewBox="0 0 62.5319 20.7754" fill="none" xmlns="http://www.w3.org/2000/svg">
<g id="Layer_1" clip-path="url(#clip0_0_15)">
<path id="Vector" d="M18.4779 0.362652L13.1623 14.0142L11.0386 2.35661C10.8188 1.26487 10.0042 0.449311 8.91252 0.360223H0.166511L0.000129761 0.812952V0.941725C1.39318 1.24705 2.86472 1.6277 4.16908 2.21812C5.73323 2.92596 5.84389 3.12843 6.29751 4.79114L10.1949 20.4496L15.4783 20.4569L23.6993 0.362652H18.4779Z" fill="var(--fill-0, white)"/>
<path id="Vector_2" d="M44.5561 12.7876C43.8599 9.27028 40.2419 8.94389 38.1779 7.05685C36.9057 5.89384 37.8608 4.66847 39.2075 4.32184C40.9553 3.87235 43.0987 4.37934 44.7099 5.12687L45.581 0.917054C45.5253 0.72187 43.484 0.244844 43.1591 0.188961C39.465 -0.452473 34.3299 0.430309 32.7563 4.43927C31.4488 7.76955 33.2037 10.0729 35.9144 11.6416C37.1081 12.3325 40.4993 13.5506 39.0828 15.5267C38.0845 16.9197 35.1469 16.6565 33.7044 16.3001C32.8105 16.0799 32.0045 15.6482 31.142 15.3655L30.2669 19.7438C31.627 20.2386 33.0444 20.578 34.4876 20.71C34.7262 20.7319 35.0048 20.6444 35.2057 20.7748H36.7063C40.9122 20.5172 45.5591 17.8519 44.5561 12.7876Z" fill="var(--fill-0, white)"/>
<path id="Vector_3" d="M58.4311 0.358842L53.8156 0.36937C53.1697 0.481135 52.6556 0.811571 52.2499 1.33233L44.4606 20.4539H49.7134L50.816 17.4362L57.2194 17.4573L57.8425 20.4539H62.5326L58.4311 0.358842ZM52.3087 13.3706L52.2397 13.2377L54.8727 5.83614L56.4047 13.3706H52.3087Z" fill="var(--fill-0, white)"/>
<path id="Vector_4" d="M25.8894 0.362524L21.762 20.4535H26.7339L30.9546 0.362524H25.8894Z" fill="var(--fill-0, white)"/>
</g>
<defs>
<clipPath id="clip0_0_15">
<rect width="62.5319" height="20.7754" fill="white"/>
</clipPath>
</defs>
</svg>
